<?xml version="1.0" encoding="UTF-8"?>
<svg width="100" height="100" viewBox="0 0 100 100" xmlns="http://www.w3.org/2000/svg">
    <g fill="currentColor">
        <path d="M50 0C22.4 0 0 22.4 0 50s22.4 50 50 50 50-22.4 50-50S77.6 0 50 0zm0 90c-22.1 0-40-17.9-40-40s17.9-40 40-40 40 17.9 40 40-17.9 40-40 40z"/>
        <path d="M65 35H35c-2.8 0-5 2.2-5 5v20c0 2.8 2.2 5 5 5h30c2.8 0 5-2.2 5-5V40c0-2.8-2.2-5-5-5zm-5 20H40V45h20v10z"/>
        <path d="M50 70c-2.8 0-5 2.2-5 5s2.2 5 5 5 5-2.2 5-5-2.2-5-5-5z"/>
    </g>
</svg>