<?xml version="1.0" encoding="UTF-8"?>
<svg width="100" height="100" viewBox="0 0 100 100" xmlns="http://www.w3.org/2000/svg">
    <g fill="currentColor">
        <path d="M50 0C22.4 0 0 22.4 0 50s22.4 50 50 50 50-22.4 50-50S77.6 0 50 0zm0 90c-22.1 0-40-17.9-40-40s17.9-40 40-40 40 17.9 40 40-17.9 40-40 40z"/>
        <path d="M50 30c-8.3 0-15 6.7-15 15s6.7 15 15 15 15-6.7 15-15-6.7-15-15-15zm0 20c-2.8 0-5-2.2-5-5s2.2-5 5-5 5 2.2 5 5-2.2 5-5 5z"/>
        <path d="M68.4 55.4c-2.5 7.2-9.3 12.4-17.2 12.4-8 0-14.8-5.2-17.2-12.4-1.1.5-2.3.8-3.6.8-5 0-9-4-9-9s4-9 9-9c1.3 0 2.5.3 3.6.8 2.5-7.2 9.3-12.4 17.2-12.4 8 0 14.8 5.2 17.2 12.4 1.1-.5 2.3-.8 3.6-.8 5 0 9 4 9 9s-4 9-9 9c-1.3 0-2.5-.3-3.6-.8z"/>
    </g>
</svg>