<?xml version="1.0" encoding="UTF-8"?>
<svg width="64px" height="64px" viewBox="0 0 64 64" version="1.1" xmlns="http://www.w3.org/2000/svg" xmlns:xlink="http://www.w3.org/1999/xlink">
    <g stroke="none" stroke-width="1" fill="none" fill-rule="evenodd">
        <path d="M5.072,0 L58.928,0 C61.712,0 64,2.288 64,5.072 L64,58.928 C64,61.712 61.712,64 58.928,64 L5.072,64 C2.288,64 0,61.712 0,58.928 L0,5.072 C0,2.288 2.288,0 5.072,0" fill="#0052CC"/>
        <path d="M31.872,15.784 L48.4,15.784 L48.4,18.968 L35.2,18.968 L35.2,29.992 L47.056,29.992 L47.056,33.176 L35.2,33.176 L35.2,47 L31.872,47 L31.872,15.784 Z M22.64,34.52 C23.696,35.576 24.224,37.016 24.224,38.84 C24.224,40.664 23.696,42.104 22.64,43.16 C21.584,44.216 20.096,44.744 18.176,44.744 C16.256,44.744 14.768,44.216 13.712,43.16 C12.656,42.104 12.128,40.664 12.128,38.84 C12.128,37.016 12.656,35.576 13.712,34.52 C14.768,33.464 16.256,32.936 18.176,32.936 C20.096,32.936 21.584,33.464 22.64,34.52 Z M15.968,36.44 C15.344,37.064 15.032,37.88 15.032,38.84 C15.032,39.8 15.344,40.616 15.968,41.24 C16.592,41.864 17.312,42.176 18.176,42.176 C19.04,42.176 19.76,41.864 20.384,41.24 C21.008,40.616 21.32,39.8 21.32,38.84 C21.32,37.88 21.008,37.064 20.384,36.44 C19.76,35.816 19.04,35.504 18.176,35.504 C17.312,35.504 16.592,35.816 15.968,36.44 Z" fill="#FFFFFF"/>
    </g>
</svg>