<?xml version="1.0" encoding="UTF-8"?>
<svg width="64px" height="64px" viewBox="0 0 64 64" version="1.1" xmlns="http://www.w3.org/2000/svg" xmlns:xlink="http://www.w3.org/1999/xlink">
    <g stroke="none" stroke-width="1" fill="none" fill-rule="evenodd">
        <path d="M5.072,0 L58.928,0 C61.712,0 64,2.288 64,5.072 L64,58.928 C64,61.712 61.712,64 58.928,64 L5.072,64 C2.288,64 0,61.712 0,58.928 L0,5.072 C0,2.288 2.288,0 5.072,0" fill="#00A1E0"/>
        <path d="M37.944,10.128 C35.952,11.52 34.248,13.2 32.928,15.12 C30.984,17.88 29.736,21.12 29.496,24.6 C29.448,25.32 29.424,26.04 29.448,26.76 C29.472,27.072 29.496,27.144 29.832,27.192 C30.768,27.36 31.704,27.576 32.616,27.864 C33.288,28.08 33.336,28.008 33.456,27.336 C34.152,23.928 35.832,21.048 38.472,18.792 C39.864,17.616 41.424,16.752 43.152,16.224 C43.344,16.176 43.536,16.128 43.728,16.08 C43.992,16.008 44.088,15.864 44.04,15.576 C43.848,14.592 43.632,13.632 43.392,12.648 C43.344,12.48 43.248,12.384 43.08,12.336 C41.592,11.784 40.104,11.232 38.616,10.656 C38.4,10.584 38.256,10.584 38.04,10.656 C38.016,10.8 37.968,10.944 37.944,11.088 L37.944,10.128 Z M27.264,28.896 C26.712,28.68 26.136,28.512 25.584,28.32 C24.936,28.104 24.288,27.888 23.64,27.696 C23.424,27.624 23.232,27.672 23.088,27.84 C21.912,29.208 20.904,30.696 20.16,32.352 C18.648,35.688 18.36,39.144 19.296,42.672 C19.8,44.544 20.64,46.248 21.888,47.736 C23.136,49.248 24.648,50.424 26.448,51.216 C29.4,52.512 32.424,52.608 35.472,51.672 C37.008,51.192 38.4,50.424 39.648,49.392 C39.768,49.296 39.864,49.176 39.984,49.08 C40.056,49.008 40.08,48.912 40.008,48.816 C39.504,47.904 38.976,47.016 38.472,46.104 C38.352,45.912 38.232,45.864 38.016,45.984 C35.688,47.304 33.216,47.544 30.672,46.68 C28.248,45.864 26.568,44.232 25.776,41.808 C25.152,39.864 25.248,37.944 26.04,36.072 C26.88,34.08 28.272,32.496 30.144,31.32 C30.36,31.2 30.432,31.056 30.384,30.816 C30.144,29.928 29.904,29.04 29.664,28.152 C29.616,27.984 29.52,27.912 29.352,27.888 C28.68,27.792 28.008,27.672 27.336,27.576 L27.264,28.896 Z M45.768,27.504 C42.672,27.504 40.152,29.976 40.152,33.096 C40.152,36.192 42.672,38.688 45.768,38.688 C48.864,38.688 51.384,36.216 51.384,33.096 C51.384,29.976 48.864,27.504 45.768,27.504 L45.768,27.504 Z" fill="#FFFFFF"/>
    </g>
</svg>